<svg height="80%" width="80%" version="1.1" id="Layer_1" xmlns="http://www.w3.org/2000/svg"
                xmlns:xlink="http://www.w3.org/1999/xlink" viewBox="0 0 512.168 512.168" xml:space="preserve">
                <g transform="translate(1)">
                    <g>
                        <path style="fill:#FFDD09;" d="M502.467,349.951c-0.853,0-2.56,0-3.413-0.853l-187.733-76.8
               c-4.267-1.707-6.827-6.827-4.267-11.093c1.707-4.267,6.827-6.827,11.093-4.267l187.733,76.8c4.267,1.707,6.827,6.827,4.267,11.093
               C509.293,348.244,505.88,349.951,502.467,349.951z" />
                        <path style="fill:#FFDD09;" d="M502.467,264.617c-0.853,0-2.56,0-3.413-0.853l-187.733-76.8
               c-4.267-1.707-6.827-6.827-4.267-11.093c1.707-4.267,6.827-6.827,11.093-4.267l187.733,76.8c4.267,1.707,6.827,6.827,4.267,11.093
               C509.293,262.911,505.88,264.617,502.467,264.617z" />
                        <path style="fill:#FFDD09;" d="M502.467,435.284c-0.853,0-2.56,0-3.413-0.853l-187.733-76.8
               c-4.267-1.707-6.827-6.827-4.267-11.093s6.827-6.827,11.093-4.267l187.733,76.8c4.267,1.707,6.827,6.827,4.267,11.093
               C509.293,433.577,505.88,435.284,502.467,435.284z" />
                        <path style="fill:#FFDD09;" d="M255.853,426.751c-137.387,0-248.32-75.947-248.32-169.813s110.933-171.52,248.32-171.52l0,0
               C289.987,197.204,289.987,314.964,255.853,426.751L255.853,426.751z" />
                    </g>
                    <path style="fill:#FFFFFF;" d="M35.693,256.084c0-87.893,97.28-161.28,221.867-169.813c0,0,0,0,0-0.853
             c-138.24,0-249.173,76.8-249.173,170.667s110.933,169.813,248.32,170.667v-0.853v-0.853
             C132.12,416.511,35.693,343.977,35.693,256.084" />
                    <path style="fill:#FD9808;" d="M255.853,85.417c-8.533,0-16.213,0-23.893,0.853c34.133,110.933,34.133,228.693,0,339.627l0,0
             c7.68,0.853,16.213,0.853,24.747,0.853v-0.853C289.987,314.964,289.987,196.351,255.853,85.417" />
                    <path d="M255,435.284L255,435.284c-140.8,0-256-81.067-256-179.2c0-37.547,16.213-73.387,46.933-103.253
             C93.72,105.044,171.373,76.884,255,76.884c3.413,0,6.827,2.56,8.533,5.973c34.133,113.493,34.133,232.96,0,346.453
             C262.68,432.724,258.413,435.284,255,435.284z M249.027,93.951c-76.8,0.853-147.627,27.307-191.147,70.827
             c-27.307,27.307-41.813,58.88-41.813,92.16c0,87.893,104.107,159.573,232.96,162.133
             C279.747,312.404,279.747,200.617,249.027,93.951z" />
                    <path d="M502.467,341.417c-0.853,0-2.56,0-3.413-0.853l-187.733-76.8c-4.267-1.707-6.827-6.827-4.267-11.093
             c1.707-4.267,6.827-6.827,11.093-4.267l187.733,76.8c4.267,1.707,6.827,6.827,4.267,11.093
             C509.293,339.711,505.88,341.417,502.467,341.417z" />
                    <path d="M502.467,256.084c-0.853,0-2.56,0-3.413-0.853l-187.733-76.8c-4.267-1.707-6.827-6.827-4.267-11.093
             c1.707-4.267,6.827-6.827,11.093-4.267l187.733,76.8c4.267,1.707,6.827,6.827,4.267,11.093
             C509.293,254.377,505.88,256.084,502.467,256.084z" />
                    <path
                        d="M502.467,426.751c-0.853,0-2.56,0-3.413-0.853l-187.733-76.8c-4.267-1.707-6.827-6.827-4.267-11.093
             s6.827-6.827,11.093-4.267l187.733,76.8c4.267,1.707,6.827,6.827,4.267,11.093C509.293,425.044,505.88,426.751,502.467,426.751z" />
                </g>
            </svg>