 <svg height="80%" width="80%" version="1.1" id="Layer_1" xmlns="http://www.w3.org/2000/svg"
                xmlns:xlink="http://www.w3.org/1999/xlink" viewBox="0 0 504.446 504.446" xml:space="preserve">
                <g transform="translate(1 1)">
                    <g>
                        <path style="fill:#FFDD09;" d="M495.052,226.043H310.397c-5.036,0-8.393-3.357-8.393-8.393s3.357-8.393,8.393-8.393h184.656
                   c5.036,0,8.393,3.357,8.393,8.393S500.089,226.043,495.052,226.043z" />
                        <path style="fill:#FFDD09;" d="M495.052,309.977H310.397c-5.036,0-8.393-3.357-8.393-8.393s3.357-8.393,8.393-8.393h184.656
                   c5.036,0,8.393,3.357,8.393,8.393S500.089,309.977,495.052,309.977z" />
                        <path style="fill:#FFDD09;" d="M495.052,393.911H310.397c-5.036,0-8.393-3.357-8.393-8.393c0-5.036,3.357-8.393,8.393-8.393
                   h184.656c5.036,0,8.393,3.357,8.393,8.393C503.446,390.554,500.089,393.911,495.052,393.911z" />
                        <path style="fill:#FFDD09;" d="M495.052,142.108H310.397c-5.036,0-8.393-3.357-8.393-8.393c0-5.036,3.357-8.393,8.393-8.393
                   h184.656c5.036,0,8.393,3.357,8.393,8.393C503.446,138.751,500.089,142.108,495.052,142.108z" />
                        <path style="fill:#FFDD09;" d="M251.643,419.092c-135.134,0-244.249-75.541-244.249-167.869S116.508,83.354,251.643,83.354
                   C285.216,192.469,285.216,309.138,251.643,419.092L251.643,419.092z" />
                    </g>
                    <path style="fill:#FFFFFF;" d="M31.734,251.223c0-86.452,96.525-158.636,219.908-167.029c0,0,0,0,0-0.839
                 c-135.974,0-245.089,75.541-245.089,167.869s109.115,167.03,244.249,167.869v-0.839c0,0,0,0,0-0.839
                 C128.259,409.02,31.734,337.675,31.734,251.223" />
                    <path style="fill:#FD9808;" d="M251.643,83.354c-8.393,0-16.787,0-25.18,0.839c32.734,109.115,32.734,224.944,0,334.059l0,0
                 c8.393,0.839,16.787,0.839,25.18,0.839v-0.839C285.216,309.138,285.216,193.308,251.643,83.354" />
                    <path d="M251.643,427.485L251.643,427.485C112.311,427.485-1,347.748-1,251.223c0-36.931,15.948-71.344,45.325-101.561
                 c47.003-46.164,124.223-74.702,206.479-74.702h0.839c3.357,0,6.715,2.518,8.393,5.875c33.574,111.633,33.574,229.141,0,340.774
                 C259.197,424.967,255,427.485,251.643,427.485z M245.767,91.748c-75.541,0.839-146.046,26.859-188.852,70.505
                 c-26.859,26.859-41.128,57.915-41.128,89.81c0,86.452,102.4,156.957,229.98,159.475C275.984,306.62,275.984,196.666,245.767,91.748
                 z" />
                    <path d="M495.052,217.649H310.397c-5.036,0-8.393-3.357-8.393-8.393c0-5.036,3.357-8.393,8.393-8.393h184.656
                 c5.036,0,8.393,3.357,8.393,8.393C503.446,214.292,500.089,217.649,495.052,217.649z" />
                    <path d="M495.052,301.584H310.397c-5.036,0-8.393-3.357-8.393-8.393s3.357-8.393,8.393-8.393h184.656
                 c5.036,0,8.393,3.357,8.393,8.393S500.089,301.584,495.052,301.584z" />
                    <path d="M495.052,385.518H310.397c-5.036,0-8.393-3.357-8.393-8.393s3.357-8.393,8.393-8.393h184.656
                 c5.036,0,8.393,3.357,8.393,8.393S500.089,385.518,495.052,385.518z" />
                    <path d="M495.052,133.715H310.397c-5.036,0-8.393-3.357-8.393-8.393c0-5.036,3.357-8.393,8.393-8.393h184.656
                 c5.036,0,8.393,3.357,8.393,8.393C503.446,130.357,500.089,133.715,495.052,133.715z" />
                </g>
            </svg>