<svg height="65%" width="65%" version="1.1" id="Layer_1" xmlns="http://www.w3.org/2000/svg"
                xmlns:xlink="http://www.w3.org/1999/xlink" viewBox="0 0 512.559 512.559" xml:space="preserve">
                <g transform="translate(1 1)">
                    <polygon style="fill:#FFDD09;" points="255.427,7.919 502.893,502.853 7.96,502.853 	" />
                    <polygon style="fill:#FD9808;"
                        points="255.427,7.919 242.627,33.519 477.293,502.853 502.893,502.853 	" />
                    <path d="M502.893,511.386H7.96c-2.56,0-5.973-1.707-7.68-4.267c-1.707-2.56-1.707-5.973,0-8.533L247.747,3.653
             c2.56-5.973,11.947-5.973,15.36,0l247.467,494.933c1.707,2.56,0.853,5.973,0,8.533C509.72,509.679,505.453,511.386,502.893,511.386
             z M21.613,494.319H489.24L255.427,26.693L21.613,494.319z" />
                </g>
            </svg>