<svg style="z-index: -1;" height="80%" width="80%" version="1.1" id="Layer_1"
                xmlns="http://www.w3.org/2000/svg" xmlns:xlink="http://www.w3.org/1999/xlink" viewBox="0 0 512 512"
                xml:space="preserve">
                <g transform="translate(1 1)">
                    <path style="fill:#FFDD09;"
                        d="M428.227,346.307c-22.187-5.973-39.253-25.6-39.253-50.347c0-28.16,23.04-40.96,51.2-40.96
  c3.413,0,6.827,0,10.24,0.853c0,3.413,0.853,5.973,0.853,9.387C451.267,298.52,442.733,319,428.227,346.307 M140.653,413.72
  C159.427,387.267,203.8,368.493,255,368.493c52.053,0,96.427,18.773,114.347,45.227c-32.427,23.04-71.68,37.547-114.347,37.547
  S172.227,436.76,140.653,413.72 M58.733,255c0-3.413,0-5.973,0.853-9.387c3.413-0.853,6.827-0.853,10.24-0.853
  c28.16,0,51.2,23.04,51.2,51.2c0,23.893-17.067,44.373-39.253,50.347C67.267,319,58.733,288.28,58.733,255 M255,58.733
  c90.453,0,164.693,61.44,187.733,145.067H67.267C90.307,120.173,164.547,58.733,255,58.733 M255,7.533
  C118.467,7.533,7.533,118.467,7.533,255S118.467,502.467,255,502.467S502.467,391.533,502.467,255S391.533,7.533,255,7.533" />
                    <path style="fill:#FD9808;"
                        d="M255,7.533c-4.267,0-8.533,0-12.8,0C372.76,14.36,476.867,122.733,476.867,255
  S372.76,495.64,242.2,502.467c4.267,0,8.533,0,12.8,0c136.533,0,247.467-110.933,247.467-247.467S391.533,7.533,255,7.533" />
                    <path style="fill:#FFFFFF;"
                        d="M255,7.533c4.267,0,8.533,0,12.8,0C137.24,14.36,33.133,122.733,33.133,255
  S137.24,495.64,267.8,502.467c-4.267,0-8.533,0-12.8,0C118.467,502.467,7.533,391.533,7.533,255S118.467,7.533,255,7.533" />
                    <path style="fill:#1CD759;" d="M331.8,280.6c0,18.773-34.133,34.133-76.8,34.133s-76.8-15.36-76.8-34.133
  s34.133-34.133,76.8-34.133S331.8,261.827,331.8,280.6" />
                    <path style="fill:#15A143;" d="M254.147,246.467c-4.267,0-8.533,0-12.8,0.853c36.693,2.56,64.853,17.067,64.853,33.28
  c0,16.213-28.16,30.72-64.853,3uu3.28c4.267,0,8.533,0.853,12.8,0.853c42.667,0,76.8-15.36,76.8-34.133
  S296.813,246.467,254.147,246.467" />
                    <path d="M255,511C114.2,511-1,395.8-1,255S114.2-1,255-1s256,115.2,256,256S395.8,511,255,511z M255,16.067
  C123.587,16.067,16.067,123.587,16.067,255S123.587,493.933,255,493.933S493.933,386.413,493.933,255S386.413,16.067,255,16.067z
   M255,459.8c-43.52,0-84.48-13.653-119.467-39.253c-3.413-2.56-4.267-7.68-1.707-11.947c20.48-29.867,68.267-48.64,122.027-48.64
  c52.907,0,100.693,18.773,121.173,48.64c2.56,3.413,1.707,9.387-1.707,11.947C339.48,446.147,297.667,459.8,255,459.8z
   M152.6,412.013c30.72,20.48,65.707,30.72,102.4,30.72s71.68-10.24,102.4-30.72c-19.627-21.333-59.733-34.987-102.4-34.987
  C212.333,377.027,173.08,390.68,152.6,412.013z M428.227,354.84c-0.853,0-1.707,0-1.707,0c-27.307-6.827-46.08-30.72-46.08-58.027
  c0-30.72,23.04-49.493,59.733-49.493c3.413,0,7.68,0,11.093,0.853c4.267,0.853,6.827,4.267,6.827,7.68v3.413
  c0,2.56,0,4.267,0,6.827c0,34.133-8.533,55.467-23.893,85.333C434.2,353.133,431.64,354.84,428.227,354.84z M441.027,263.533
  c-12.8,0-42.667,3.413-42.667,32.427c0,17.92,10.24,33.28,26.453,39.253c11.947-23.893,18.773-42.667,18.773-70.827
  c0-0.853,0-0.853,0-1.707C441.88,263.533,441.027,263.533,441.027,263.533z M81.773,354.84c-3.413,0-5.973-1.707-7.68-4.267
  C58.733,320.707,50.2,288.28,50.2,255c0-2.56,0-4.267,0-6.827v-3.413c0-4.267,3.413-6.827,6.827-7.68
  c3.413-0.853,7.68-0.853,11.093-0.853c33.28,0,59.733,27.307,59.733,59.733c0,27.307-18.773,51.2-46.08,58.027
  C83.48,354.84,82.627,354.84,81.773,354.84z M67.267,253.293c0,0.853,0,0.853,0,1.707c0,28.16,5.973,55.467,18.773,81.067
  c16.213-6.827,26.453-22.187,26.453-39.253C112.493,272.067,92.013,252.44,67.267,253.293z M442.733,212.333H67.267
  c-2.56,0-5.12-0.853-6.827-3.413c-1.707-1.707-1.707-5.12-1.707-7.68C83.48,112.493,163.693,50.2,255,50.2
  s171.52,62.293,196.267,151.04c0.853,2.56,0,5.12-1.707,7.68C447.853,211.48,445.293,212.333,442.733,212.333z M78.36,195.267
  h352.427c-24.747-75.947-96.427-128-175.787-128S103.96,119.32,78.36,195.267z" />
                    <path d="M255,323.267c-48.64,0-85.333-17.92-85.333-42.667c0-24.747,36.693-42.667,85.333-42.667s85.333,17.92,85.333,42.667
  C340.333,305.347,303.64,323.267,255,323.267z M255,255c-41.813,0-68.267,15.36-68.267,25.6c0,10.24,26.453,25.6,68.267,25.6
  s68.267-15.36,68.267-25.6C323.267,270.36,296.813,255,255,255z" />
                </g>
            </svg>